<?xml version="1.0" standalone="no"?>
<!DOCTYPE svg PUBLIC "-//W3C//DTD SVG 20010904//EN"
 "http://www.w3.org/TR/2001/REC-SVG-20010904/DTD/svg10.dtd">
<svg version="1.0" xmlns="http://www.w3.org/2000/svg"
 width="895.000000pt" height="900.000000pt" viewBox="0 0 895.000000 900.000000"
 preserveAspectRatio="xMidYMid meet">

<g transform="translate(0.000000,900.000000) scale(0.100000,-0.100000)"
fill="#000000" stroke="none">
<path d="M4262 7640 c-70 -29 -43 -160 34 -160 28 0 69 33 60 48 -5 8 -13 5
-26 -8 -24 -24 -43 -25 -64 -4 -19 18 -21 75 -4 92 7 7 25 12 40 12 15 0 28
-5 28 -12 0 -9 3 -9 13 1 10 10 8 15 -7 27 -22 16 -41 17 -74 4z"/>
<path d="M4445 7634 c-26 -20 -28 -105 -3 -130 24 -25 88 -21 111 7 24 29 22
90 -3 117 -24 26 -75 29 -105 6z m85 -24 c19 -19 20 -37 4 -87 -4 -14 -41 -17
-68 -7 -20 8 -23 100 -3 107 25 11 48 6 67 -13z"/>
<path d="M4630 7648 c0 -2 11 -39 24 -83 30 -105 48 -107 88 -11 31 76 33 86
17 86 -9 0 -20 -20 -51 -100 -6 -14 -12 -20 -14 -15 -1 6 -10 36 -19 68 -10
35 -22 57 -31 57 -8 0 -14 -1 -14 -2z"/>
<path d="M4062 7614 c-14 -10 -22 -24 -20 -36 3 -22 15 -30 63 -45 45 -13 39
-38 -10 -39 -45 0 -52 -14 -13 -28 31 -11 81 11 86 37 5 27 -27 57 -60 57 -32
0 -49 27 -27 41 8 5 25 7 37 4 17 -4 23 -2 20 7 -7 20 -50 21 -76 2z"/>
<path d="M4846 7621 c-3 -5 -9 -40 -12 -78 l-7 -70 33 -6 c45 -9 70 -9 70 2 0
5 -17 11 -39 15 -35 5 -38 8 -33 32 4 23 8 26 38 21 42 -7 45 11 4 20 -21 4
-30 11 -30 24 0 15 8 19 40 19 51 0 52 15 3 24 -51 8 -61 8 -67 -3z"/>
<path d="M3938 7599 c-2 -6 1 -41 7 -77 9 -52 15 -68 30 -70 13 -3 16 0 11 13
-3 9 -9 35 -12 58 -9 69 -14 87 -23 87 -5 0 -11 -5 -13 -11z"/>
<path d="M5017 7578 c-19 -109 -20 -128 -3 -128 11 0 16 9 16 30 0 23 4 30 20
30 14 0 22 -11 30 -40 6 -22 15 -40 20 -40 14 0 13 57 -1 65 -7 5 -3 14 10 26
35 32 25 63 -24 74 -17 4 -37 9 -46 11 -12 3 -18 -4 -22 -28z m83 -13 c17 -20
4 -35 -31 -35 -24 0 -29 4 -29 25 0 20 5 25 24 25 13 0 29 -7 36 -15z"/>
<path d="M3785 7573 c-11 -2 -30 -6 -41 -8 l-22 -5 17 -77 c17 -77 18 -78 47
-74 48 5 82 28 89 59 13 62 -32 115 -90 105z m52 -33 c7 -8 13 -34 13 -56 0
-44 -10 -54 -54 -54 -20 0 -24 8 -33 55 -6 38 -6 58 1 65 15 15 58 8 73 -10z"/>
<path d="M5406 7488 c-17 -111 -17 -125 0 -132 10 -4 21 -1 26 6 5 7 18 29 31
48 l22 35 5 -60 c3 -37 10 -60 17 -60 19 0 93 128 81 140 -7 7 -12 7 -14 0 -2
-5 -18 -30 -34 -55 l-30 -45 0 61 c0 33 -3 64 -7 67 -3 4 -21 -16 -40 -43 -18
-28 -35 -50 -36 -50 -2 0 -1 27 1 60 5 64 -13 86 -22 28z"/>
<path d="M5186 7494 c-7 -19 10 -44 29 -44 19 0 36 25 29 44 -3 9 -16 16 -29
16 -13 0 -26 -7 -29 -16z"/>
<path d="M3393 7467 c-17 -7 -35 -15 -39 -19 -9 -10 38 -148 50 -148 22 0 95
33 90 41 -2 4 -16 4 -30 -1 -38 -15 -51 -12 -57 11 -5 17 1 24 24 32 39 15 37
30 -2 22 -22 -5 -34 -3 -40 6 -14 22 -11 27 26 39 19 6 35 16 35 21 0 12 -17
10 -57 -4z"/>
<path d="M3534 7446 c-10 -26 4 -48 28 -44 17 2 23 10 23 28 0 18 -6 26 -23
28 -13 2 -25 -3 -28 -12z"/>
<path d="M5647 7358 c-36 -41 -51 -65 -44 -70 6 -4 19 0 28 8 24 22 79 0 79
-32 0 -13 4 -24 9 -24 14 0 21 164 8 172 -20 13 -23 10 -80 -54z m68 -16 c-5
-27 -9 -30 -28 -23 -25 10 -24 38 1 57 23 17 35 2 27 -34z"/>
<path d="M3210 7394 c-19 -8 -36 -16 -38 -19 -9 -9 53 -145 66 -145 10 0 12 6
8 20 -3 11 -9 29 -12 40 -9 30 33 26 57 -5 12 -14 26 -22 35 -18 12 5 10 11
-13 35 -24 25 -33 28 -65 23 -23 -4 -38 -3 -38 3 0 6 -3 17 -6 25 -7 19 28 40
50 31 9 -3 16 -15 16 -26 0 -10 5 -16 10 -13 17 10 11 44 -9 55 -24 12 -18 13
-61 -6z"/>
<path d="M4385 7404 c-137 -14 -319 -70 -515 -156 -163 -72 -316 -151 -860
-446 -228 -123 -446 -241 -485 -262 -38 -20 -106 -57 -150 -80 -334 -178 -453
-387 -509 -885 -72 -647 -78 -1264 -20 -1915 41 -461 78 -652 157 -805 54
-105 198 -250 346 -350 l105 -70 31 -125 c17 -69 35 -137 38 -152 l7 -28 109
0 110 0 12 54 c17 79 19 81 72 55 45 -22 47 -25 47 -65 l0 -42 98 -4 c86 -4
105 -8 172 -40 324 -155 390 -189 390 -201 0 -8 -7 -34 -15 -58 -27 -79 -25
-75 -34 -60 -5 8 -3 27 5 46 16 38 4 89 -25 105 -18 9 -91 12 -274 11 l-108
-1 3 -37 c3 -33 7 -39 33 -43 l30 -5 3 -88 3 -87 44 0 45 0 0 90 c0 89 0 90
25 90 25 0 25 -1 25 -90 l0 -90 45 0 45 0 0 42 c0 45 9 44 26 -5 12 -36 48
-50 109 -41 29 4 44 12 50 27 15 32 49 33 63 2 10 -21 18 -25 57 -25 25 0 45
4 45 10 0 5 -11 39 -24 75 -20 55 -21 66 -8 63 9 -2 25 -31 40 -75 l24 -73 49
0 c40 0 49 3 49 18 0 30 16 45 39 37 14 -4 21 -15 21 -31 0 -22 4 -24 50 -24
27 0 94 -11 149 -25 241 -61 472 -61 711 1 52 13 100 24 108 24 7 0 21 8 30
17 16 16 17 15 20 -1 3 -14 13 -16 50 -14 45 3 48 5 60 43 12 37 26 54 45 55
4 0 7 -22 7 -50 l0 -50 45 0 c45 0 45 0 45 35 l0 35 33 -36 c41 -45 95 -54
150 -26 30 16 37 17 37 5 0 -12 21 -14 123 -12 67 1 132 -1 145 -5 39 -13 92
12 108 50 15 37 10 80 -13 102 -11 11 -10 18 4 43 18 30 18 30 -7 49 -40 30
-114 34 -147 7 -9 -6 -13 -6 -13 2 0 7 -26 11 -75 11 -41 0 -75 4 -75 8 0 5
35 25 78 45 195 90 265 123 379 177 115 55 122 57 137 41 28 -31 108 -69 168
-80 132 -24 268 35 325 143 18 33 25 172 10 212 -6 18 2 28 50 65 212 158 327
328 382 561 24 101 69 502 93 828 16 228 16 972 -1 1185 -44 568 -79 782 -150
939 -87 192 -196 298 -436 426 -171 90 -268 142 -315 168 -25 13 -74 40 -110
60 -36 19 -108 58 -160 87 -52 29 -126 69 -165 90 -38 21 -97 52 -130 71 -348
191 -655 337 -825 390 -144 46 -345 70 -465 58z m246 -49 c255 -38 471 -135
1304 -587 259 -141 520 -281 580 -313 196 -104 283 -171 359 -279 104 -146
146 -282 182 -581 88 -755 81 -1568 -22 -2329 -35 -261 -95 -407 -226 -551
-57 -62 -195 -175 -215 -175 -17 0 -47 40 -37 49 5 5 37 32 71 60 128 105 240
276 296 451 37 115 51 187 67 360 6 63 15 151 21 195 5 44 11 135 12 201 l2
121 -45 49 c-25 27 -65 78 -90 113 -25 35 -60 84 -77 108 -18 24 -33 45 -33
48 0 3 11 10 25 15 14 5 28 17 32 27 7 17 -28 126 -58 178 -9 16 -20 42 -23
57 l-6 28 35 -17 c33 -16 36 -15 55 2 11 10 20 26 20 35 0 10 -32 79 -70 154
-39 75 -68 141 -65 146 4 6 14 10 23 10 25 0 62 28 62 46 0 9 -27 73 -59 142
-32 70 -71 162 -86 204 -46 130 -72 131 -123 8 -20 -47 -68 -149 -108 -227
-82 -162 -82 -170 3 -175 l52 -3 -14 -25 c-7 -14 -20 -39 -28 -56 -8 -18 -40
-75 -71 -127 -31 -52 -56 -101 -56 -109 0 -26 24 -38 77 -38 l53 0 -24 -48
c-37 -73 -49 -80 -79 -40 -14 18 -48 76 -77 128 -29 52 -56 99 -61 105 -13 13
-11 25 4 25 8 0 22 9 32 20 17 19 17 22 0 67 -10 27 -31 74 -46 105 -16 32
-29 62 -29 68 0 7 24 8 70 4 58 -6 71 -4 76 9 6 16 -29 97 -56 130 -23 27
-130 199 -130 209 0 4 15 8 33 8 54 0 77 10 77 34 0 11 -22 71 -49 131 -27 61
-65 154 -85 207 -21 54 -45 107 -55 120 -18 21 -20 21 -44 5 -16 -10 -32 -36
-42 -69 -10 -29 -60 -138 -112 -242 -105 -210 -105 -210 -15 -203 28 2 52 0
52 -5 0 -15 -51 -110 -96 -180 -58 -90 -86 -147 -79 -158 10 -17 64 -11 106
11 23 11 43 18 46 15 3 -3 -25 -66 -61 -140 -37 -74 -67 -139 -67 -143 0 -4
15 -10 33 -13 l33 -5 -59 -48 -59 -48 -23 22 c-13 13 -24 28 -24 36 0 7 -4 13
-10 13 -5 0 -10 9 -10 20 0 11 -4 20 -9 20 -4 0 -32 48 -62 108 -29 59 -56
109 -59 112 -3 3 -10 14 -16 25 -6 11 -16 29 -22 40 -6 11 -20 38 -30 60 -37
77 -101 195 -121 224 -12 16 -21 33 -21 38 0 5 -15 27 -33 49 -19 21 -39 49
-46 62 -6 12 -17 22 -24 22 -8 0 -29 21 -48 46 -42 56 -62 68 -89 54 -11 -6
-77 -97 -147 -203 -70 -105 -140 -205 -157 -222 -17 -17 -38 -44 -46 -60 -8
-17 -20 -37 -27 -45 -49 -61 -103 -139 -103 -147 0 -13 -79 -123 -89 -123 -8
0 -51 94 -51 113 0 18 -24 67 -32 67 -5 0 -8 6 -8 14 0 16 -62 140 -72 144 -5
2 -8 9 -8 16 0 15 -69 151 -97 193 -10 16 -25 42 -33 58 -33 68 -170 263 -213
303 -77 70 -107 60 -193 -59 -33 -45 -80 -110 -106 -146 -26 -35 -56 -83 -67
-106 -23 -46 -171 -250 -192 -262 -8 -6 -18 0 -28 16 -34 53 -98 109 -125 109
-43 0 -63 -16 -122 -96 -30 -40 -59 -74 -64 -74 -10 0 -45 56 -55 90 -4 14
-15 36 -25 50 -10 14 -21 36 -25 50 -4 14 -16 36 -26 49 -21 26 -17 41 9 41
30 1 55 28 54 57 0 16 -22 73 -48 128 -25 55 -61 140 -78 189 -48 134 -84 142
-122 25 -11 -35 -49 -124 -84 -198 -71 -152 -72 -178 -12 -196 17 -5 32 -15
32 -22 0 -20 -43 -113 -52 -113 -4 0 -8 -6 -8 -14 0 -8 -18 -45 -40 -82 -45
-78 -48 -96 -20 -124 18 -18 23 -19 54 -6 l33 14 -7 -37 c-8 -39 -17 -60 -55
-131 -42 -76 -32 -117 27 -122 l38 -3 -65 -140 c-36 -77 -65 -148 -65 -157 0
-45 65 -63 100 -28 11 11 20 17 20 14 0 -17 -106 -203 -114 -201 -6 2 -19 32
-31 68 -26 80 -57 149 -67 149 -5 0 -8 9 -8 19 0 17 5 19 33 14 43 -7 62 15
53 59 -8 42 -29 88 -38 88 -5 0 -8 9 -8 20 0 11 -4 20 -9 20 -5 0 -16 15 -25
33 -9 17 -25 48 -36 67 l-20 35 30 8 c63 16 59 54 -20 216 -27 56 -52 113 -56
128 -10 50 -26 81 -41 88 -23 8 -52 -22 -59 -63 -4 -20 -33 -92 -65 -161 -33
-69 -59 -137 -59 -150 0 -30 26 -61 52 -61 21 0 23 -13 5 -32 -19 -20 -114
-212 -121 -245 -9 -41 11 -56 64 -48 23 3 40 3 37 -2 -14 -23 -78 -167 -83
-187 -6 -27 18 -56 47 -56 24 0 24 -18 0 -67 -10 -21 -23 -51 -29 -68 -5 -16
-20 -54 -33 -83 -18 -40 -21 -57 -13 -70 16 -25 53 -26 85 -3 37 28 37 15 -1
-37 -17 -23 -52 -84 -78 -134 -27 -51 -55 -103 -62 -115 -15 -23 -14 -32 30
-338 40 -274 116 -425 310 -615 79 -78 109 -114 115 -139 6 -30 5 -33 -11 -27
-45 17 -184 129 -259 207 -166 175 -203 300 -265 894 -55 532 -53 1318 5 1852
40 369 62 465 138 613 77 149 181 248 364 346 59 31 319 172 577 311 856 465
1063 561 1305 608 147 28 219 30 352 10z m-1631 -2386 c0 -3 -7 -12 -15 -19
-13 -10 -17 -7 -30 23 -20 49 -19 51 15 25 17 -12 30 -25 30 -29z m2299 -273
c51 -9 115 -26 142 -38 60 -25 131 -100 232 -241 l72 -102 47 3 c40 3 52 -1
73 -22 31 -31 35 -106 7 -133 -17 -17 -16 -21 7 -78 16 -41 25 -88 29 -146 l5
-87 -88 -28 c-109 -35 -117 -45 -113 -150 l3 -79 73 -3 c51 -2 83 2 104 12 17
9 35 13 40 10 44 -27 64 -272 33 -410 -20 -93 -37 -129 -68 -145 -26 -15 -983
-58 -1288 -59 -183 0 -197 -1 -214 -20 -17 -18 -31 -20 -187 -20 -190 0 -222
9 -275 75 -15 19 -35 35 -43 35 -8 0 -102 21 -209 46 l-193 46 -29 -28 c-27
-25 -31 -26 -112 -22 -54 3 -94 10 -109 20 -14 9 -41 48 -61 87 -20 39 -49 90
-64 113 -29 48 -43 129 -24 152 8 10 9 65 5 197 -12 338 38 714 114 854 l27
50 140 27 c171 34 428 74 584 93 181 21 1211 15 1340 -9z m429 -1678 c-3 -7
-24 -24 -49 -38 -59 -33 -174 -36 -233 -4 -69 35 -58 43 66 47 62 1 137 4 166
5 39 1 53 -1 50 -10z m-1002 -99 c125 -60 195 -252 166 -451 -27 -188 -123
-298 -262 -298 -166 0 -260 143 -260 396 0 130 21 214 70 281 63 85 192 118
286 72z m1722 6 c29 -9 56 -14 61 -11 9 6 21 -73 21 -141 0 -24 -3 -43 -7 -43
-5 0 -20 20 -34 44 -35 57 -105 93 -157 80 -49 -13 -76 -52 -68 -98 9 -46 47
-83 145 -140 174 -102 222 -222 141 -349 -73 -115 -281 -132 -396 -33 l-37 32
22 85 c13 46 26 87 30 92 4 4 15 -17 24 -47 47 -148 246 -186 264 -50 9 67
-14 96 -141 179 -138 89 -168 125 -174 205 -2 32 1 73 7 92 32 98 163 143 299
103z m-3880 -5 c-34 -20 -31 -63 26 -309 31 -132 56 -244 56 -248 0 -26 16 33
65 245 57 249 61 292 27 312 -11 6 57 9 208 9 124 0 219 -3 212 -6 -7 -3 -19
-18 -27 -33 -12 -24 -15 -84 -15 -335 0 -251 3 -311 15 -335 8 -15 20 -30 27
-33 7 -3 -43 -6 -112 -6 -114 -1 -123 0 -103 14 12 9 27 32 33 53 14 53 12
577 -3 621 -22 63 -64 64 -89 1 -6 -14 -47 -173 -92 -355 l-82 -330 -74 -3
-75 -3 -74 303 c-92 377 -97 395 -126 424 l-24 24 122 0 c84 -1 117 -4 105
-10z m1600 -2 c82 -2 82 -2 82 -28 0 -15 3 -61 6 -103 4 -44 3 -77 -2 -77 -5
0 -17 20 -28 45 -32 79 -111 120 -179 92 -77 -33 -117 -134 -117 -296 0 -118
22 -201 65 -246 38 -41 74 -51 126 -36 l39 12 0 132 c0 147 -10 199 -43 222
-20 14 -13 15 92 15 l114 0 -19 -21 c-17 -19 -19 -41 -22 -229 l-3 -208 -37 5
c-21 3 -62 -2 -92 -11 -211 -63 -340 52 -357 320 -13 198 47 347 162 409 21
11 45 14 80 10 28 -2 87 -6 133 -7z m1579 1 c-33 -19 -39 -61 -48 -304 -8
-260 -4 -297 37 -336 34 -32 111 -34 144 -4 46 41 51 70 45 283 -8 285 -12
320 -40 348 l-24 24 110 0 111 0 -28 -32 -27 -33 7 -240 c5 -180 10 -244 21
-261 31 -47 -52 -148 -148 -180 -67 -22 -187 -15 -243 14 -77 39 -141 135
-113 169 20 23 32 454 15 503 l-13 38 46 10 c67 14 171 15 148 1z m-2111 -18
c75 -34 115 -114 94 -191 -15 -55 -70 -108 -120 -116 -22 -4 -40 -8 -40 -10 0
-2 16 -29 36 -59 34 -53 70 -132 108 -238 10 -26 29 -61 43 -77 l25 -30 -117
0 -116 0 15 22 c23 32 20 61 -18 170 -37 108 -84 192 -133 240 l-33 32 0 -175
c1 -192 8 -245 41 -271 20 -17 17 -18 -101 -18 -118 0 -121 1 -101 18 31 25
41 109 40 362 -1 258 -7 316 -39 342 -22 18 -18 18 176 18 172 0 205 -3 240
-19z m1741 -2 c109 -53 132 -179 47 -264 -23 -23 -48 -37 -74 -41 -22 -4 -40
-8 -40 -10 0 -2 16 -29 36 -59 34 -53 70 -132 108 -238 10 -26 29 -61 43 -77
l25 -30 -117 0 -116 0 15 22 c23 32 20 61 -18 170 -37 108 -84 192 -133 240
l-33 32 0 -175 c1 -192 8 -245 41 -271 20 -17 17 -18 -101 -18 -118 0 -121 1
-101 18 31 25 41 109 40 362 -1 258 -7 316 -39 342 -22 18 -18 18 176 18 180
0 202 -2 241 -21z m974 -460 c16 -11 27 -25 23 -30 -3 -5 -27 -21 -54 -34
l-49 -25 -15 22 c-24 34 -19 53 17 71 42 21 44 21 78 -4z m-3470 -89 c59 -30
60 -32 54 -63 -4 -18 -9 -35 -12 -39 -8 -14 -123 51 -123 70 0 21 11 62 16 62
3 0 32 -14 65 -30z m3527 -2 c-3 -26 -46 -45 -74 -34 -16 6 -13 11 21 32 49
30 57 30 53 2z m-700 -225 l57 -16 -165 -79 c-140 -67 -226 -97 -281 -98 -4 0
-21 -14 -38 -32 l-31 -32 0 40 0 39 198 97 c108 53 199 97 200 97 2 1 29 -6
60 -16z m-2177 -90 c99 -48 174 -90 168 -94 -7 -4 -9 -18 -4 -38 5 -25 4 -30
-9 -25 -8 3 -19 19 -25 35 -9 27 -14 29 -60 29 -41 0 -77 13 -223 84 -96 45
-181 86 -189 89 -8 3 26 6 75 6 l88 1 179 -87z m-241 -143 c0 -16 -7 -20 -30
-20 l-30 0 0 -90 c0 -89 0 -90 -25 -90 -25 0 -25 1 -25 90 l0 90 -30 0 c-23 0
-30 4 -30 20 0 18 7 20 85 20 78 0 85 -2 85 -20z m174 4 c20 -19 21 -68 2 -83
-12 -11 -12 -18 5 -54 24 -55 24 -67 -4 -67 -18 0 -26 9 -37 43 -11 30 -21 43
-37 45 -21 3 -23 -1 -23 -42 0 -42 -2 -46 -25 -46 l-25 0 0 110 0 110 64 0
c45 0 69 -5 80 -16z m210 -87 c20 -57 36 -106 36 -110 0 -4 -11 -7 -25 -7 -18
0 -26 7 -31 25 -5 21 -12 25 -45 25 -33 0 -41 -4 -49 -25 -7 -17 -17 -25 -34
-25 l-24 0 36 110 c36 109 37 110 68 110 31 0 32 -2 68 -103z m117 33 c13 -38
26 -70 29 -70 3 0 16 32 29 70 20 62 25 70 48 70 16 0 23 -5 21 -12 -3 -7 -20
-57 -37 -110 -31 -93 -34 -98 -61 -98 -26 0 -29 5 -64 105 -20 58 -36 107 -36
110 0 3 11 5 24 5 22 0 28 -9 47 -70z m309 50 c0 -17 -7 -20 -50 -20 -47 0
-50 -2 -50 -25 0 -23 4 -25 45 -25 38 0 45 -3 45 -20 0 -17 -7 -20 -45 -20
-41 0 -45 -2 -45 -25 0 -23 3 -25 50 -25 43 0 50 -3 50 -20 0 -18 -7 -20 -75
-20 l-75 0 0 110 0 110 75 0 c68 0 75 -2 75 -20z m90 -70 l0 -90 50 0 c43 0
50 -3 50 -20 0 -18 -7 -20 -75 -20 l-75 0 0 110 0 110 25 0 c25 0 25 -1 25
-90z m330 75 c20 -24 2 -35 -45 -28 -41 5 -45 4 -45 -15 0 -14 9 -21 33 -26
53 -10 77 -32 77 -71 0 -24 -7 -39 -22 -49 -30 -22 -100 -20 -127 2 -20 15
-20 19 -8 36 14 19 16 19 31 3 10 -9 31 -17 47 -17 22 0 29 5 29 20 0 21 -4
24 -52 34 -58 13 -80 80 -36 110 28 20 102 21 118 1z m210 -5 c0 -17 -7 -20
-50 -20 -47 0 -50 -2 -50 -25 0 -23 4 -25 46 -25 38 0 45 -3 42 -17 -2 -13
-15 -19 -46 -21 -37 -3 -42 -6 -42 -28 0 -22 4 -24 50 -24 43 0 50 -3 50 -20
0 -18 -7 -20 -75 -20 l-75 0 0 110 0 110 75 0 c68 0 75 -2 75 -20z m184 -2
c21 -30 20 -54 -4 -78 -10 -10 -15 -22 -11 -25 5 -3 16 -25 24 -50 l16 -45
-25 0 c-18 0 -27 8 -34 28 -15 42 -26 57 -44 60 -13 3 -16 -5 -16 -42 0 -42
-2 -46 -25 -46 l-25 0 0 110 0 110 64 0 c56 0 67 -3 80 -22z m107 -48 c13 -38
26 -70 29 -70 3 0 16 32 29 70 20 62 25 70 48 70 16 0 23 -5 21 -12 -3 -7 -20
-57 -37 -110 -31 -93 -34 -98 -60 -98 -27 0 -30 6 -65 103 -20 57 -36 106 -36
110 0 4 11 7 24 7 22 0 28 -9 47 -70z m209 -40 l0 -110 -25 0 -25 0 0 110 0
110 25 0 25 0 0 -110z m211 91 c23 -19 23 -21 7 -37 -16 -17 -19 -17 -36 -1
-23 21 -56 22 -76 1 -18 -18 -21 -76 -6 -105 14 -26 64 -25 83 1 15 22 47 18
47 -6 0 -30 -39 -54 -86 -54 -37 0 -51 5 -75 29 -25 25 -29 37 -29 81 0 44 4
56 29 81 24 23 38 29 74 29 29 0 53 -7 68 -19z m209 -1 c0 -18 -7 -20 -55 -20
-52 0 -55 -1 -55 -25 0 -23 4 -25 45 -25 38 0 45 -3 45 -20 0 -17 -7 -20 -45
-20 -41 0 -45 -2 -45 -25 0 -24 3 -25 55 -25 48 0 55 -2 55 -20 0 -18 -7 -20
-80 -20 l-80 0 0 110 0 110 80 0 c73 0 80 -2 80 -20z m161 10 c16 -9 17 -15 8
-31 -8 -16 -13 -18 -24 -9 -19 16 -70 9 -70 -10 0 -8 18 -19 45 -27 70 -20 92
-71 50 -113 -43 -43 -177 -10 -141 34 12 15 16 15 31 1 19 -17 66 -20 75 -5
11 17 -13 37 -50 44 -59 11 -83 68 -45 106 22 22 88 27 121 10z m-1984 -8 c13
-8 6 -52 -8 -52 -5 0 -9 3 -9 8 0 4 -3 17 -6 30 -6 23 2 28 23 14z m1571 -59
c7 -12 17 -14 41 -10 28 6 31 4 31 -18 0 -22 -3 -23 -35 -18 -28 5 -35 2 -35
-11 0 -22 -26 -31 -45 -16 -8 7 -15 24 -15 39 0 45 39 68 58 34z m-1468 -33
c0 -20 -5 -30 -15 -30 -18 0 -18 1 -5 34 13 34 20 33 20 -4z m1038 -25 c16
-34 15 -45 -3 -45 -14 0 -35 37 -35 61 0 19 27 8 38 -16z m705 19 c3 -3 1 -15
-6 -25 -9 -15 -22 -19 -57 -17 l-45 1 43 4 c34 3 42 8 42 24 0 19 11 25 23 13z
m-1575 -41 c-16 -2 -40 -2 -55 0 -16 2 -3 4 27 4 30 0 43 -2 28 -4z m761 -50
c1 -7 -3 -13 -9 -13 -5 0 -10 15 -9 33 0 27 2 29 9 12 5 -11 9 -26 9 -32z
m-495 -3 c43 -38 109 -49 153 -26 27 13 32 14 37 1 4 -11 23 -15 73 -16 66 -1
67 -2 23 -10 -59 -10 -284 -10 -335 0 -22 5 -32 9 -22 10 13 1 17 10 17 36 0
43 9 44 54 5z"/>
<path d="M4275 4651 c-8 -26 112 -421 136 -446 19 -20 34 -20 694 -23 541 -2
675 0 675 10 0 15 -255 367 -297 410 -15 16 -43 33 -63 38 -33 9 -751 30
-1017 30 -110 0 -122 -2 -128 -19z"/>
<path d="M4007 4606 c-9 -9 -18 -59 -25 -143 -16 -173 -16 -171 7 -142 17 21
30 24 100 27 l81 4 45 -45 c39 -38 45 -50 45 -86 0 -22 5 -41 10 -41 12 0 11
7 -31 218 -32 161 -38 176 -82 202 -39 24 -128 27 -150 6z"/>
<path d="M3525 4555 c-165 -24 -301 -44 -302 -44 -1 -1 -14 -38 -28 -82 -30
-96 -58 -260 -53 -315 l3 -39 73 0 c475 2 502 4 527 29 13 13 29 43 35 67 6
24 38 127 70 229 32 101 56 188 54 192 -9 13 -67 8 -379 -37z"/>
<path d="M3846 4108 c-26 -363 -34 -808 -16 -808 6 0 10 81 10 224 0 208 12
518 25 629 3 26 2 47 -3 47 -6 0 -13 -42 -16 -92z"/>
<path d="M3960 4170 c0 -10 9 -24 19 -30 21 -11 169 -14 158 -3 -4 4 -31 6
-60 5 -54 -2 -104 16 -99 36 1 7 -2 12 -8 12 -5 0 -10 -9 -10 -20z"/>
<path d="M3784 4046 c-9 -23 0 -79 14 -84 8 -2 12 11 12 47 0 48 -14 68 -26
37z"/>
<path d="M3906 4041 c-6 -10 10 -25 37 -34 22 -8 22 5 -1 26 -21 19 -28 21
-36 8z"/>
<path d="M3160 3951 c0 -4 64 -11 143 -14 130 -5 158 -4 146 7 -9 7 -289 14
-289 7z"/>
<path d="M4321 3832 c-15 -28 -14 -185 1 -200 7 -7 30 -12 52 -12 22 0 47 -6
55 -14 11 -9 61 -16 167 -20 139 -7 152 -6 174 12 22 18 23 21 12 78 -20 101
-42 116 -212 148 -41 8 -112 18 -157 21 -75 7 -82 6 -92 -13z"/>
<path d="M4830 3743 c0 -5 15 -35 33 -68 28 -53 36 -60 72 -68 22 -4 171 -7
330 -5 245 3 295 6 320 20 42 23 64 49 71 88 7 30 5 33 -12 24 -10 -5 -161
-10 -334 -12 -252 -2 -330 0 -391 13 -88 17 -89 17 -89 8z"/>
<path d="M3205 3567 c-25 -38 -39 -177 -26 -262 14 -93 28 -127 54 -123 34 5
50 69 51 198 1 166 -35 253 -79 187z m25 -28 c-13 -44 -13 -274 0 -319 8 -31
8 -33 -5 -16 -38 51 -46 261 -12 340 20 47 31 44 17 -5z"/>
<path d="M3328 3525 c40 -45 52 -88 59 -207 6 -99 23 -137 23 -50 0 139 -51
292 -97 292 -11 0 -6 -10 15 -35z"/>
<path d="M3947 3480 c-49 -53 -71 -131 -65 -229 8 -131 70 -231 145 -231 36 0
90 56 113 116 26 70 27 190 3 265 -24 72 -71 119 -122 119 -32 0 -45 -7 -74
-40z m21 -37 c-53 -110 -47 -281 14 -366 29 -40 15 -45 -15 -5 -75 100 -77
288 -4 395 34 51 37 39 5 -24z"/>
<path d="M4160 3492 c91 -62 138 -194 128 -364 -2 -37 0 -68 5 -68 5 0 7 55 5
128 -4 100 -10 139 -28 186 -24 62 -88 136 -117 135 -14 0 -13 -4 7 -17z"/>
<path d="M4880 3476 c0 -14 4 -36 10 -50 l9 -25 358 6 c197 3 367 9 379 13 11
5 25 24 31 44 l11 36 -399 0 -399 0 0 -24z m705 -16 c-40 -10 -687 -10 -655 0
14 4 174 8 355 8 182 0 317 -4 300 -8z"/>
<path d="M5861 3408 l-84 -20 6 -52 c7 -71 44 -166 65 -166 8 0 31 5 49 12 25
9 36 20 43 48 14 51 24 186 14 192 -5 3 -47 -4 -93 -14z m79 -33 c0 -2 -25
-12 -55 -20 -71 -21 -107 -14 -40 8 49 15 95 21 95 12z m-15 -74 c-13 -13 -95
-31 -95 -21 0 11 48 28 80 29 15 1 20 -3 15 -8z m5 -67 c0 -5 -63 -34 -75 -34
-14 0 -2 18 18 28 24 12 57 15 57 6z"/>
<path d="M4440 3338 c0 -35 7 -88 16 -117 18 -62 50 -86 129 -96 90 -11 96 -6
160 116 40 77 52 110 43 113 -7 2 -74 12 -148 21 -74 9 -150 19 -167 22 l-33
6 0 -65z m245 -19 c41 -9 52 -14 36 -17 -38 -6 -251 34 -251 47 0 9 114 -7
215 -30z m-55 -69 c72 -19 98 -30 66 -30 -28 0 -210 41 -226 51 -22 14 74 1
160 -21z m-33 -71 c66 -13 85 -34 22 -24 -71 11 -129 27 -129 35 0 7 18 6 107
-11z"/>
<path d="M5275 3360 c-222 -4 -347 -10 -360 -17 -11 -6 -29 -22 -41 -35 -28
-31 -117 -188 -111 -195 3 -3 191 0 419 6 227 6 451 11 497 11 l83 0 -7 28
c-21 87 -104 218 -133 210 -4 -1 -160 -4 -347 -8z m345 -130 c0 -6 -78 -10
-212 -10 -117 0 -270 -3 -340 -7 -93 -4 -128 -3 -128 5 0 8 75 12 263 15 144
1 297 3 340 5 46 1 77 -2 77 -8z"/>
<path d="M4562 2847 c-118 -56 -75 -485 57 -574 45 -30 67 -29 101 5 41 42 53
99 47 227 -8 169 -61 301 -137 340 -34 17 -37 17 -68 2z"/>
<path d="M3384 2808 c13 -83 68 -142 131 -142 47 0 79 32 79 79 0 65 -63 105
-168 105 l-49 0 7 -42z"/>
<path d="M5124 2808 c13 -83 68 -142 131 -142 47 0 79 32 79 79 0 65 -63 105
-168 105 l-49 0 7 -42z"/>
<path d="M3370 1845 c0 -21 5 -25 29 -25 29 0 42 14 34 38 -3 6 -18 12 -34 12
-24 0 -29 -4 -29 -25z"/>
<path d="M3593 1815 c-11 -34 -10 -35 14 -35 21 0 23 3 17 23 -14 46 -20 48
-31 12z"/>
<path d="M4820 1845 c0 -23 4 -26 28 -23 19 2 27 9 27 23 0 14 -8 21 -27 23
-24 3 -28 0 -28 -23z"/>
<path d="M5821 7289 c-20 -45 -29 -75 -23 -81 6 -6 18 9 32 41 27 58 40 57 40
-2 0 -55 9 -87 25 -87 12 0 75 117 75 139 0 27 -23 7 -41 -36 -23 -55 -39 -46
-39 24 0 34 -18 73 -34 73 -2 0 -18 -32 -35 -71z"/>
<path d="M3005 7295 c-14 -13 -25 -30 -25 -38 0 -34 24 -79 51 -92 25 -13 33
-14 63 -1 38 16 51 43 41 84 -17 69 -85 93 -130 47z m85 -17 c24 -26 27 -83 4
-92 -30 -12 -52 -6 -68 19 -42 64 13 128 64 73z"/>
<path d="M6015 7197 c-19 -35 -35 -68 -35 -74 0 -13 65 -43 95 -43 14 0 32 11
44 27 46 57 36 100 -29 133 l-39 20 -36 -63z m83 13 c28 -27 28 -52 -2 -86
-22 -26 -25 -27 -55 -14 -17 7 -30 16 -29 19 21 45 53 101 58 101 3 0 16 -9
28 -20z"/>
<path d="M2825 7200 c-6 -10 60 -140 71 -140 11 0 84 46 84 53 0 12 -23 8 -44
-8 -11 -8 -23 -15 -26 -15 -3 0 -19 25 -35 56 -32 60 -40 70 -50 54z"/>
<path d="M6209 7107 c-52 -83 -54 -89 -33 -104 11 -8 31 -21 47 -29 24 -13 27
-13 27 0 0 8 -9 17 -19 21 -32 10 -42 29 -27 50 13 18 15 18 41 1 37 -25 46
-10 10 18 -25 20 -28 26 -16 40 12 15 16 14 46 -4 20 -12 36 -17 39 -11 5 8
-71 62 -85 61 -2 -1 -16 -20 -30 -43z"/>
<path d="M2683 7117 l-31 -23 32 -52 c44 -69 56 -83 68 -76 5 3 2 17 -7 31
-16 25 -16 26 14 54 36 32 37 37 15 67 -19 28 -50 27 -91 -1z m65 -9 c18 -18
15 -36 -8 -48 -16 -8 -24 -8 -35 4 -20 19 -19 33 3 45 22 13 26 13 40 -1z"/>
<path d="M2577 7044 c-4 -4 -7 -22 -7 -40 0 -32 -1 -33 -30 -23 -49 18 -58 4
-12 -20 36 -18 42 -26 42 -54 0 -37 14 -65 24 -48 4 6 4 26 0 46 -7 40 -8 40
37 21 54 -22 69 -6 18 19 -37 19 -45 29 -54 65 -6 23 -13 38 -18 34z"/>
<path d="M6345 6988 c-31 -43 -42 -65 -35 -72 11 -11 14 -8 40 34 8 13 11 13
27 -3 14 -14 16 -22 6 -47 -8 -22 -8 -32 2 -40 14 -11 25 14 25 58 0 14 6 22
18 22 21 0 42 19 42 38 0 13 -58 72 -72 72 -4 0 -28 -28 -53 -62z m91 0 c10
-32 -11 -44 -41 -24 -25 17 -26 19 -10 36 20 22 42 17 51 -12z"/>
<path d="M2394 6907 l-37 -33 48 -62 c52 -67 45 -66 108 -15 16 13 23 24 16
28 -6 4 -21 -2 -33 -14 -27 -26 -35 -26 -52 -3 -11 15 -9 20 14 39 33 26 23
41 -12 18 -22 -15 -29 -15 -42 -4 -15 12 -13 16 16 40 18 16 27 29 21 33 -6 4
-27 -8 -47 -27z"/>
</g>
</svg>
